# xmcd
#
# Track frame offsets:
#	150
#	14417
#	35765
#	53147
#	68907
#	85145
#	103762
#	126987
#	142352
#	161380
#	180797
#
# Disc length: 2588 seconds
#
# Revision: 1
# Processed by: cddbd v1.5.2PL0 Copyright (c) Steve Scherf et al.
# Submitted via: audiograbber 1.81.03
#
DISCID=960a1a0b
DTITLE=Los Lobos - Colossal Head
DYEAR=1996
DGENRE=Rock
TTITLE0=Revolution
TTITLE1=Mas Y Mas
TTITLE2=Maricela
TTITLE3=Everybody loves a Train
TTITLE4=Can't stop the Rain
TTITLE5=Life is good
TTITLE6=Little Japan
TTITLE7=Manny's Bones
TTITLE8=Colossal Head
TTITLE9=The Bird's gonna fly
TTITLE10=Buddy Ebsen loves the Night Time
EXTD=
EXTT0=
EXTT1=
EXTT2=
EXTT3=
EXTT4=
EXTT5=
EXTT6=
EXTT7=
EXTT8=
EXTT9=
EXTT10=
PLAYORDER=
